ply
format ascii 1.0
element vertex 157
property float x
property float y
property float z
property float u
property float v
element face 209
property list uchar int vertex_indices
end_header
265.021 183.66 0 530.043 367.32
268.561 200.266 0 537.122 400.531
272.1 216.871 0 544.201 433.742
250.074 185.179 0 500.148 370.358
252.654 200.111 0 505.309 400.221
255.235 215.042 0 510.47 430.084
235.131 186.775 0 470.262 373.549
236.613 201.354 0 473.226 402.708
238.095 215.934 0 476.19 431.867
220.119 187.521 0 440.238 375.042
220.537 201.31 0 441.074 402.62
220.955 215.099 0 441.909 430.198
205.167 189.075 0 410.333 378.151
204.478 202.036 0 408.956 404.072
203.789 214.997 0 407.579 429.994
82.9042 69.6134 0 626.163 525.779
89.772 71.0853 0 678.035 536.897
96.6399 72.5572 0 729.906 548.014
82.1414 70.6038 0 620.402 533.26
88.2553 72.4048 0 666.579 546.863
94.3691 74.2059 0 712.756 560.466
80.3868 70.9718 0 607.149 536.039
85.6711 73.4982 0 647.061 555.121
90.9554 76.0247 0 686.972 574.203
78.3397 71.1597 0 591.688 537.459
82.6687 74.5617 0 624.384 563.154
86.9977 77.9637 0 657.08 588.848
76.2251 71.8788 0 575.717 542.89
79.3407 75.5538 0 599.248 570.646
82.4563 79.2287 0 622.78 598.402
74.2739 73.2257 0 560.98 553.062
76.0599 75.1554 0 574.469 567.637
77.8459 77.0851 0 587.958 582.212
73.6321 74.1261 0 556.133 559.863
73.4632 75.2494 0 554.857 568.347
75.5876 76.433 0 570.902 577.287
83.2471 35.195 0 628.753 265.823
78.6545 37.3771 0 594.066 282.304
74.0619 39.5592 0 559.378 298.785
79.3747 34.1377 0 599.505 257.837
75.569 36.1655 0 570.761 273.153
71.7634 38.1934 0 542.018 288.469
75.5652 32.8571 0 570.733 248.165
72.4441 34.9645 0 547.159 264.081
69.3229 37.0718 0 523.585 279.998
71.7735 31.5253 0 542.094 238.106
69.3255 33.7442 0 523.605 254.865
66.8776 35.9631 0 505.117 271.624
67.9607 30.2578 0 513.297 228.532
66.1547 32.6583 0 499.657 246.663
64.3488 35.0588 0 486.017 264.794
63.9974 29.6984 0 483.363 224.308
63.0037 31.7356 0 475.858 239.694
62.01 33.7727 0 468.352 255.08
62.3031 30.0461 0 470.566 226.934
61.1391 31.4627 0 461.774 237.633
61.2805 32.7417 0 462.843 247.293
73.2229 40.5046 0 553.041 305.925
71.7312 44.0974 0 541.775 333.061
70.2396 47.6901 0 530.509 360.196
69.1946 39.8378 0 522.616 300.889
67.9265 43.4396 0 513.039 328.093
66.6585 47.0415 0 503.461 355.297
65.1307 39.4264 0 491.922 297.782
64.1118 42.8669 0 484.227 323.767
63.093 46.3074 0 476.532 349.753
61.0542 39.1885 0 461.133 295.985
60.2775 42.4537 0 455.267 320.646
59.5008 45.7188 0 449.401 345.307
56.9761 38.968 0 430.332 294.319
56.4422 42.0509 0 426.299 317.604
55.9082 45.1338 0 422.267 340.889
52.9004 39.0713 0 399.549 295.099
52.621 41.7671 0 397.439 315.461
52.3416 44.463 0 395.328 335.823
51.2107 39.972 0 386.787 301.903
50.4901 41.765 0 381.344 315.445
51.0049 43.4623 0 385.233 328.265
70.1778 48.6333 0 530.043 367.32
71.1151 53.0305 0 537.122 400.531
72.0524 57.4277 0 544.201 433.742
66.2198 49.0356 0 500.148 370.358
66.9031 52.9894 0 505.309 400.221
67.5864 56.9433 0 510.47 430.084
62.2628 49.4581 0 470.262 373.549
62.6553 53.3187 0 473.226 402.708
63.0477 57.1794 0 476.19 431.867
58.2877 49.6557 0 440.238 375.042
58.3983 53.307 0 441.074 402.62
58.5089 56.9584 0 441.909 430.198
54.3282 50.0673 0 410.333 378.151
54.1459 53.4993 0 408.956 404.072
53.9636 56.9313 0 407.579 429.994
50.3688 50.4669 0 380.428 381.169
49.9339 53.3712 0 377.143 403.105
49.4989 56.2756 0 373.858 425.041
48.6434 51.1276 0 367.396 386.159
47.5972 52.7306 0 359.494 398.266
47.8819 54.8163 0 361.645 414.019
72.2448 59.4932 0 545.654 449.343
74.8052 63.7042 0 564.993 481.148
77.3657 67.9153 0 584.331 512.954
68.695 60.8938 0 518.843 459.922
70.7963 64.7538 0 534.714 489.076
72.8977 68.6138 0 550.586 518.23
64.9935 62.0332 0 490.886 468.528
66.7077 65.6448 0 503.833 495.805
68.4219 69.2564 0 516.78 523.083
61.1938 62.7794 0 462.188 474.163
62.5476 66.0786 0 472.413 499.082
63.9014 69.3778 0 482.638 524
57.337 63.1257 0 433.058 476.779
58.3601 66.354 0 440.785 501.162
59.3831 69.5823 0 448.512 525.545
53.5915 64.0193 0 404.768 483.528
54.2415 66.5908 0 409.678 502.95
54.8915 69.1622 0 414.587 522.372
52.2021 65.1445 0 394.274 492.027
51.7147 66.941 0 390.594 505.595
53.0038 68.5311 0 400.33 517.605
106.352 40.0212 0 803.262 302.274
105.813 47.686 0 799.19 360.165
108.654 65.8769 0 820.65 497.559
100.006 39.159 0 755.333 295.762
100.65 46.4639 0 760.194 350.935
100.764 47.7541 0 761.053 360.68
100.899 49.2906 0 762.076 372.285
102.397 66.2846 0 773.386 500.638
95.4902 37.2611 0 721.223 281.428
95.667 45.2844 0 722.558 342.026
95.7229 47.8221 0 722.981 361.193
95.7921 50.9583 0 723.503 384.881
96.1389 66.6923 0 726.122 503.717
91.2309 36.1538 0 689.053 273.064
90.882 44.1517 0 686.418 333.471
90.719 47.8895 0 685.187 361.703
90.5099 52.6832 0 683.608 397.908
89.8811 67.0999 0 678.859 506.796
87.1287 35.7391 0 658.07 269.932
86.3196 43.0717 0 651.959 325.314
85.7807 47.9561 0 647.889 362.206
85.0628 54.4619 0 642.467 411.343
83.6234 67.5076 0 631.595 509.875
82.7561 38.5598 0 625.045 291.237
74.3292 40.2335 0 561.397 303.877
79.3938 44.8537 0 599.65 338.773
71.1458 48.1535 0 537.354 363.696
78.6718 52.2678 0 594.196 394.771
72.6978 58.4997 0 549.076 441.839
79.6874 62.0961 0 601.867 469.003
105.222 66.3021 0 794.723 500.77
101.821 68.1533 0 769.039 514.752
99.2255 70.4162 0 749.436 531.843
80.2476 68.0383 0 606.098 513.883
94.0166 68.1566 0 710.093 514.777
91.8943 69.621 0 694.064 525.837
86.3927 68.3567 0 652.511 516.288
3 0 1 3
3 1 4 3
3 1 2 4
3 2 5 4
3 3 4 6
3 4 7 6
3 4 5 7
3 5 8 7
3 6 7 9
3 7 10 9
3 7 8 10
3 8 11 10
3 9 10 12
3 10 13 12
3 10 11 13
3 11 14 13
3 15 16 18
3 16 19 18
3 16 17 19
3 17 20 19
3 18 19 21
3 19 22 21
3 19 20 22
3 20 23 22
3 21 22 24
3 22 25 24
3 22 23 25
3 23 26 25
3 24 25 27
3 25 28 27
3 25 26 28
3 26 29 28
3 27 28 30
3 28 31 30
3 28 29 31
3 29 32 31
3 30 31 33
3 33 31 34
3 34 31 35
3 31 32 35
3 36 37 39
3 37 40 39
3 37 38 40
3 38 41 40
3 39 40 42
3 40 43 42
3 40 41 43
3 41 44 43
3 42 43 45
3 43 46 45
3 43 44 46
3 44 47 46
3 45 46 48
3 46 49 48
3 46 47 49
3 47 50 49
3 48 49 51
3 49 52 51
3 49 50 52
3 50 53 52
3 51 52 54
3 54 52 55
3 55 52 56
3 52 53 56
3 57 58 60
3 58 61 60
3 58 59 61
3 59 62 61
3 60 61 63
3 61 64 63
3 61 62 64
3 62 65 64
3 63 64 66
3 64 67 66
3 64 65 67
3 65 68 67
3 66 67 69
3 67 70 69
3 67 68 70
3 68 71 70
3 69 70 72
3 70 73 72
3 70 71 73
3 71 74 73
3 72 73 75
3 75 73 76
3 76 73 77
3 73 74 77
3 78 79 81
3 79 82 81
3 79 80 82
3 80 83 82
3 81 82 84
3 82 85 84
3 82 83 85
3 83 86 85
3 84 85 87
3 85 88 87
3 85 86 88
3 86 89 88
3 87 88 90
3 88 91 90
3 88 89 91
3 89 92 91
3 90 91 93
3 91 94 93
3 91 92 94
3 92 95 94
3 93 94 96
3 96 94 97
3 97 94 98
3 94 95 98
3 99 100 102
3 100 103 102
3 100 101 103
3 101 104 103
3 102 103 105
3 103 106 105
3 103 104 106
3 104 107 106
3 105 106 108
3 106 109 108
3 106 107 109
3 107 110 109
3 108 109 111
3 109 112 111
3 109 110 112
3 110 113 112
3 111 112 114
3 112 115 114
3 112 113 115
3 113 116 115
3 114 115 117
3 117 115 118
3 118 115 119
3 115 116 119
3 120 121 123
3 121 124 123
3 124 121 125
3 125 121 126
3 121 122 126
3 126 122 127
3 123 124 128
3 124 129 128
3 124 125 129
3 125 130 129
3 125 126 130
3 126 131 130
3 126 127 131
3 127 132 131
3 128 129 133
3 129 134 133
3 129 130 134
3 130 135 134
3 130 131 135
3 131 136 135
3 131 132 136
3 132 137 136
3 133 134 138
3 134 139 138
3 134 135 139
3 135 140 139
3 135 136 140
3 136 141 140
3 136 137 141
3 137 142 141
3 138 143 36
3 138 139 143
3 139 144 143
3 144 38 143
3 37 143 38
3 37 36 143
3 144 145 57
3 139 145 144
3 139 140 145
3 140 146 145
3 146 59 145
3 58 145 59
3 58 57 145
3 146 147 78
3 140 147 146
3 140 141 147
3 141 148 147
3 148 80 147
3 79 147 80
3 79 78 147
3 148 149 99
3 141 149 148
3 141 142 149
3 142 101 149
3 100 149 101
3 100 99 149
3 127 122 150
3 132 127 150
3 150 154 132
3 150 151 154
3 151 155 154
3 151 152 155
3 152 16 155
3 152 17 16
3 137 132 154
3 137 154 156
3 156 154 155
3 156 155 15
3 15 155 16
3 142 137 156
3 142 156 153
3 153 156 15
3 101 142 153
