ply
format ascii 1.0
element vertex 12
property float x
property float y
property float z
property float u
property float v
element face 12
property list uchar int vertex_indices
end_header
326.394 261.696 0 652.789 523.392
348.723 270.528 0 697.445 541.057
371.051 279.361 0 742.102 558.722
320.802 269.353 0 641.604 538.706
341.237 276.823 0 682.474 553.645
361.672 284.292 0 723.344 568.584
310.784 278.243 0 621.568 556.487
329.403 283.926 0 658.806 567.851
348.021 289.608 0 696.043 579.215
299.19 288.151 0 598.381 576.301
316.448 293.134 0 632.896 586.268
333.705 298.117 0 667.41 596.235
3 0 1 3
3 1 4 3
3 1 2 4
3 2 5 4
3 3 4 6
3 4 7 6
3 4 5 7
3 5 8 7
3 6 7 9
3 7 10 9
3 7 8 10
3 8 11 10
