ply
format ascii 1.0
element vertex 142
property float x
property float y
property float z
property float u
property float v
element face 193
property list uchar int vertex_indices
end_header
236.455 141.824 0 652.789 523.392
241.279 145.697 0 697.445 541.057
246.104 149.57 0 742.102 558.722
234.496 143.283 0 641.604 538.706
238.958 146.677 0 682.474 553.645
243.42 150.07 0 723.344 568.584
231.354 144.709 0 621.568 556.487
235.504 147.525 0 658.806 567.851
239.655 150.34 0 696.043 579.215
227.746 146.266 0 598.381 576.301
231.615 148.805 0 632.896 586.268
235.484 151.345 0 667.41 596.235
224.493 148.987 0 580.492 603.943
227.824 151.051 0 609.931 611.614
231.155 153.115 0 639.369 619.286
221.998 152.783 0 570.692 637.817
224.29 153.937 0 590.336 641.116
226.582 155.09 0 609.981 644.415
221.52 154.784 0 571.736 653.748
222.379 156.773 0 582.667 666.536
224.756 156.343 0 599.313 657.895
245.813 110.071 0 649.392 266.448
240.519 110.979 0 612.208 285.318
235.225 111.887 0 575.025 304.188
241.531 108.528 0 614.096 264.822
237.128 109.26 0 583.116 280.341
232.725 109.991 0 552.136 295.86
237.501 106.415 0 579.363 258.388
233.972 107.126 0 554.82 271.752
230.443 107.837 0 530.277 285.116
233.741 103.853 0 545.6 248.006
230.98 104.737 0 527.154 260.896
228.219 105.622 0 508.707 273.786
230.144 101.061 0 512.526 235.551
227.942 102.374 0 499.202 250.336
225.739 103.687 0 485.878 265.122
226.267 98.7018 0 478.362 226.941
224.788 100.196 0 470.821 241.41
223.31 101.689 0 463.281 255.879
224.44 98.1687 0 463.593 227.176
222.522 99.0029 0 451.28 237.76
222.47 100.533 0 454.403 249.226
234.567 113.558 0 573.975 318.089
232.237 116.002 0 562.303 341.559
229.908 118.447 0 550.63 365.029
230.471 111.967 0 539.951 315.683
228.418 114.271 0 530.011 337.481
226.365 116.576 0 520.072 359.278
226.349 110.042 0 504.971 310.859
224.615 112.325 0 497.346 331.765
222.881 114.608 0 489.721 352.672
222.311 107.942 0 470.21 304.54
220.979 110.089 0 465.254 323.517
219.647 112.236 0 460.297 342.493
218.239 105.91 0 435.351 298.805
217.197 108.091 0 432.618 317.367
216.154 110.271 0 429.884 335.929
213.914 104.505 0 400.052 298.302
213.205 106.565 0 399.514 315.205
212.495 108.625 0 398.976 332.108
211.871 104.419 0 384.706 302.345
210.252 105.895 0 376.08 317.006
210.976 107.754 0 385.712 329.131
229.48 120.175 0 551.418 378.826
228.261 123.392 0 549.754 405.483
227.042 126.609 0 548.091 432.139
225.119 118.754 0 515.821 378.292
223.891 121.718 0 513.508 403.085
222.663 124.681 0 511.195 427.878
220.782 117.057 0 479.768 375.646
219.466 119.996 0 476.742 400.463
218.149 122.935 0 473.716 425.279
216.604 115.003 0 444.068 369.989
215.35 117.659 0 440.86 392.568
214.096 120.316 0 437.652 415.147
212.452 112.889 0 408.43 363.834
211.182 115.395 0 404.754 385.329
209.911 117.9 0 401.078 406.824
208.235 110.91 0 372.621 358.823
206.988 113.18 0 368.577 378.518
205.741 115.45 0 364.533 398.213
206.188 110.422 0 356.317 359.895
204.219 111.507 0 344.202 372.463
204.229 113.816 0 349.575 389.562
226.389 128.609 0 547.837 448.461
227.237 132.766 0 563.656 477.349
228.085 136.923 0 579.475 506.237
222.374 128.047 0 516.768 453.499
222.894 131.628 0 528.836 478.871
223.414 135.21 0 540.905 504.244
218.315 127.553 0 485.532 459.148
218.407 130.947 0 493.994 484.105
218.499 134.34 0 502.456 509.061
214.378 126.451 0 453.809 460
214.11 129.52 0 458.855 483.374
213.841 132.589 0 463.901 506.749
210.486 125.193 0 422.062 459.587
209.858 127.94 0 423.7 481.402
209.23 130.687 0 425.338 503.218
206.609 123.897 0 390.338 458.864
205.707 126.157 0 388.825 477.701
204.804 128.418 0 387.313 496.538
204.84 123.624 0 376.593 460.896
203.069 124.597 0 365.685 472.179
203.327 126.859 0 372.785 488.362
272.8 124.003 0 825.321 290.574
263.482 128.876 0 823.539 365.404
254.354 136.893 0 847.122 463.9
260.77 117.215 0 776.697 285.136
258.856 126.204 0 783.109 356.189
258.586 127.471 0 784.013 366.207
258.316 128.738 0 784.916 376.223
255.726 140.901 0 793.593 472.367
256.71 114.869 0 741.202 277.048
254.018 123.408 0 740.814 346.548
253.222 125.931 0 740.699 367.087
252.387 128.58 0 740.578 388.643
248.816 139.907 0 740.063 480.835
252.914 113.032 0 708.838 272.125
249.589 120.849 0 702.101 337.724
248.057 124.449 0 698.998 367.934
246.369 128.419 0 695.577 401.249
241.906 138.912 0 686.534 489.302
249.268 111.527 0 678.352 269.327
245.503 118.489 0 666.39 329.584
243.056 123.014 0 658.615 368.755
240.221 128.255 0 649.609 414.125
234.995 137.918 0 633.005 497.77
244.023 113.2 0 643.29 293.758
235.508 112.714 0 579.024 309.671
238.637 118.405 0 615.272 344.707
230.478 119.404 0 557.058 370.818
235.262 124.645 0 604.554 398.726
227.293 127.91 0 552.936 441.205
232.649 132.751 0 603.756 464.834
258.779 144.331 0 824.1 490.804
254.54 146.152 0 796.83 514.026
250.268 147.746 0 768.805 535.642
232.522 138.873 0 616.85 510.525
246.304 141.837 0 725.857 500.909
243.792 143.767 0 711.651 520.983
239.181 140.368 0 669.661 506.347
3 0 1 3
3 1 4 3
3 1 2 4
3 2 5 4
3 3 4 6
3 4 7 6
3 4 5 7
3 5 8 7
3 6 7 9
3 7 10 9
3 7 8 10
3 8 11 10
3 9 10 12
3 10 13 12
3 10 11 13
3 11 14 13
3 12 13 15
3 13 16 15
3 13 14 16
3 14 17 16
3 15 16 18
3 18 16 19
3 19 16 20
3 16 17 20
3 21 22 24
3 22 25 24
3 22 23 25
3 23 26 25
3 24 25 27
3 25 28 27
3 25 26 28
3 26 29 28
3 27 28 30
3 28 31 30
3 28 29 31
3 29 32 31
3 30 31 33
3 31 34 33
3 31 32 34
3 32 35 34
3 33 34 36
3 34 37 36
3 34 35 37
3 35 38 37
3 36 37 39
3 39 37 40
3 40 37 41
3 37 38 41
3 42 43 45
3 43 46 45
3 43 44 46
3 44 47 46
3 45 46 48
3 46 49 48
3 46 47 49
3 47 50 49
3 48 49 51
3 49 52 51
3 49 50 52
3 50 53 52
3 51 52 54
3 52 55 54
3 52 53 55
3 53 56 55
3 54 55 57
3 55 58 57
3 55 56 58
3 56 59 58
3 57 58 60
3 60 58 61
3 61 58 62
3 58 59 62
3 63 64 66
3 64 67 66
3 64 65 67
3 65 68 67
3 66 67 69
3 67 70 69
3 67 68 70
3 68 71 70
3 69 70 72
3 70 73 72
3 70 71 73
3 71 74 73
3 72 73 75
3 73 76 75
3 73 74 76
3 74 77 76
3 75 76 78
3 76 79 78
3 76 77 79
3 77 80 79
3 78 79 81
3 81 79 82
3 82 79 83
3 79 80 83
3 84 85 87
3 85 88 87
3 85 86 88
3 86 89 88
3 87 88 90
3 88 91 90
3 88 89 91
3 89 92 91
3 90 91 93
3 91 94 93
3 91 92 94
3 92 95 94
3 93 94 96
3 94 97 96
3 94 95 97
3 95 98 97
3 96 97 99
3 97 100 99
3 97 98 100
3 98 101 100
3 99 100 102
3 102 100 103
3 103 100 104
3 100 101 104
3 105 106 108
3 106 109 108
3 109 106 110
3 110 106 111
3 106 107 111
3 111 107 112
3 108 109 113
3 109 114 113
3 109 110 114
3 110 115 114
3 110 111 115
3 111 116 115
3 111 112 116
3 112 117 116
3 113 114 118
3 114 119 118
3 114 115 119
3 115 120 119
3 115 116 120
3 116 121 120
3 116 117 121
3 117 122 121
3 118 119 123
3 119 124 123
3 119 120 124
3 120 125 124
3 120 121 125
3 121 126 125
3 121 122 126
3 122 127 126
3 123 128 21
3 123 124 128
3 124 129 128
3 129 23 128
3 22 128 23
3 22 21 128
3 129 130 42
3 124 130 129
3 124 125 130
3 125 131 130
3 131 44 130
3 43 130 44
3 43 42 130
3 131 132 63
3 125 132 131
3 125 126 132
3 126 133 132
3 133 65 132
3 64 132 65
3 64 63 132
3 133 134 84
3 126 134 133
3 126 127 134
3 127 86 134
3 85 134 86
3 85 84 134
3 112 107 135
3 117 112 135
3 135 139 117
3 135 136 139
3 136 140 139
3 136 137 140
3 137 1 140
3 137 2 1
3 122 117 139
3 122 139 141
3 141 139 140
3 141 140 0
3 0 140 1
3 127 122 141
3 127 141 138
3 138 141 0
3 86 127 138
