ply
format ascii 1.0
element vertex 185
property float x
property float y
property float z
property float u
property float v
element face 246
property list uchar int vertex_indices
end_header
348.091 244.257 0 696.216 488.526
368.989 252.177 0 738.016 504.364
389.888 260.095 0 779.817 520.201
346.505 253.974 0 693.051 507.961
364.304 260.085 0 728.651 520.184
382.102 266.197 0 764.25 532.407
339.31 266.134 0 678.666 532.284
355.275 270.315 0 710.599 540.647
371.24 274.496 0 742.531 549.009
329.714 279.064 0 659.48 558.149
344.975 282.261 0 690.006 564.544
360.236 285.457 0 720.532 570.938
322.259 294.762 0 644.575 589.55
336.448 297.085 0 672.958 594.195
350.637 299.405 0 701.34 598.84
321.146 313.343 0 642.357 626.715
331.046 313.987 0 662.159 628.001
340.947 314.628 0 681.962 629.287
323.138 321.372 0 646.346 642.773
330.19 327.021 0 660.444 654.07
337.008 321.605 0 674.08 643.24
313.321 112.274 0 626.641 224.548
298.98 123.618 0 597.96 247.237
284.638 134.961 0 569.279 269.927
296.732 113.741 0 593.461 227.484
284.707 122.787 0 569.412 245.578
272.681 131.833 0 545.362 263.673
280.286 111.064 0 560.566 222.132
270.64 119.489 0 541.276 238.985
260.995 127.913 0 521.986 255.838
264.067 107.203 0 528.123 214.415
256.987 114.828 0 513.966 229.667
249.907 122.453 0 499.809 244.92
247.926 103.02 0 495.837 206.056
242.962 111.021 0 485.913 222.059
237.998 119.022 0 475.989 238.063
231.516 100.281 0 463.014 200.584
228.805 107.942 0 457.595 215.907
226.094 115.603 0 452.177 231.23
224.434 101.225 0 448.849 202.477
219.326 106.809 0 438.636 213.648
221.314 112.384 0 442.616 224.795
285.469 142.411 0 570.949 284.831
281.283 155.845 0 562.579 311.699
277.097 169.278 0 554.209 338.568
268.643 146.219 0 537.299 292.452
265.033 157.57 0 530.082 315.155
261.423 168.921 0 522.864 337.858
250.383 145.982 0 500.782 291.982
248.007 157.134 0 496.03 314.287
245.63 168.286 0 491.279 336.592
232.138 145.202 0 464.293 290.423
231.191 154.893 0 462.402 309.807
230.246 164.584 0 460.512 329.19
213.898 144.163 0 427.814 288.349
214.17 154.012 0 428.359 308.046
214.442 163.861 0 428.904 327.744
195.711 145.723 0 391.44 291.471
197.175 154.337 0 394.371 308.698
198.64 162.95 0 397.301 325.926
188.302 148.761 0 376.621 297.55
185.7 157.373 0 371.421 314.775
191.565 162.301 0 383.152 324.627
277.141 176.689 0 554.299 353.388
277.605 189.625 0 555.23 379.261
278.07 202.56 0 556.16 405.133
259.76 179.062 0 519.537 358.138
259.586 191.564 0 519.193 383.141
259.414 204.066 0 518.849 408.143
242.162 181.489 0 484.34 362.992
241.451 193.705 0 482.923 387.425
240.742 205.919 0 481.507 411.857
224.455 180.371 0 448.923 360.768
223.339 191.726 0 446.699 383.477
222.225 203.081 0 444.476 406.185
206.717 179.215 0 413.448 358.462
205.167 189.912 0 410.353 379.858
203.617 200.609 0 407.259 401.253
188.998 177.977 0 378.008 356
187.064 187.708 0 374.144 375.461
185.128 197.438 0 370.281 394.922
181.345 178.59 0 362.704 357.229
175.096 184.959 0 350.208 369.97
177.719 193.76 0 355.46 387.575
281.628 210.087 0 563.281 420.186
294.692 222.935 0 589.41 445.884
307.757 235.785 0 615.54 471.583
266.875 216.134 0 533.776 432.288
276.796 226.84 0 553.62 453.699
286.718 237.544 0 573.465 475.11
251.36 221.386 0 502.747 442.791
258.9 232.381 0 517.829 464.779
266.44 243.375 0 532.91 486.767
235.323 224.689 0 470.675 449.399
240.545 235.839 0 481.118 471.7
245.765 246.991 0 491.562 494
219.1 227.079 0 438.23 454.18
221.891 237.591 0 443.81 475.205
224.679 248.105 0 449.39 496.23
202.805 228.939 0 405.64 457.901
203.229 238.301 0 406.486 476.627
203.651 247.663 0 407.332 495.352
195.844 230.343 0 391.721 460.709
190.304 236.334 0 380.639 472.687
195.455 244.791 0 390.937 489.606
507.914 51.3751 0 1015.82 102.74
484.967 66.659 0 969.93 133.311
504.675 155.116 0 1009.36 310.222
459.043 82.6506 0 918.085 165.297
461.649 131.313 0 923.303 262.622
464.255 179.976 0 928.52 359.947
430.509 101.215 0 861.018 202.43
434.63 146.748 0 869.266 293.493
438.751 192.28 0 877.514 384.556
405.334 108.049 0 811.115 230.491
411.347 157.983 0 822.702 315.963
417.957 202.316 0 835.93 404.63
380.159 114.884 0 760.321 229.767
386.696 153.925 0 773.399 307.849
387.813 160.599 0 775.635 321.197
388.768 166.306 0 777.547 332.612
395.917 209.01 0 791.852 418.02
361.331 113.043 0 722.661 226.086
365.909 150.503 0 731.825 301.006
367.419 162.865 0 734.849 325.733
368.741 173.688 0 737.496 347.379
373.876 215.703 0 747.774 431.411
344.342 112 0 688.684 224
346.742 147.348 0 693.491 294.697
347.942 165.03 0 695.895 330.065
349.022 180.956 0 698.061 361.919
351.836 222.397 0 703.696 444.802
328.437 112.543 0 656.874 225.086
328.808 144.394 0 657.624 288.794
329.073 167.126 0 658.159 334.261
329.319 188.219 0 658.656 376.448
329.796 229.09 0 659.618 458.192
314.391 126.681 0 628.784 253.364
286.995 137.511 0 573.997 275.029
306.191 155.406 0 612.394 310.821
279.891 172.594 0 559.797 345.199
305.141 183.374 0 610.3 366.76
282.282 205.56 0 564.586 411.132
312.288 214.662 0 624.6 429.339
415.87 219.712 0 831.763 439.42
407.55 233.543 0 815.13 467.088
398.47 246.701 0 796.975 493.412
328.328 235.901 0 656.684 471.817
372.247 227.861 0 744.522 455.728
370.618 240.019 0 741.269 480.046
349.964 233.328 0 699.956 466.664
334.979 96.3666 0 696.216 488.526
346.083 78.038 0 738.016 504.364
358.284 59.6639 0 779.817 520.201
328.121 91.2487 0 693.051 507.961
337.64 75.0024 0 728.651 520.184
347.71 59.2309 0 764.25 532.407
315.002 87.023 0 678.666 532.284
324.274 73.2296 0 710.599 540.647
333.685 59.7077 0 742.531 549.009
299.416 83.7612 0 659.48 558.149
308.713 71.1651 0 690.006 564.544
318.027 58.6675 0 720.532 570.938
283.465 77.0545 0 644.575 589.55
292.496 65.8311 0 672.958 594.195
301.519 54.6357 0 701.34 598.84
270.244 63.9829 0 642.357 626.715
277.185 56.8792 0 662.159 628.001
284.121 49.7832 0 681.962 629.287
266.363 56.6825 0 646.346 642.773
267.826 47.7668 0 660.444 654.07
276.52 47.2294 0 674.08 643.24
313.321 112.274 0 615.54 471.583
430.509 101.215 0 835.93 404.63
380.159 114.884 0 791.852 418.02
361.331 113.043 0 747.774 431.411
344.342 112 0 703.696 444.802
328.437 112.543 0 659.618 458.192
404.634 88.1072 0 831.763 439.42
389.456 76.0804 0 815.13 467.088
374.01 66.8999 0 796.975 493.412
324.663 109.374 0 656.684 471.817
360.747 98.939 0 744.522 455.728
354.386 87.3532 0 741.269 480.046
341.717 103.109 0 699.956 466.664
3 0 1 3
3 1 4 3
3 1 2 4
3 2 5 4
3 3 4 6
3 4 7 6
3 4 5 7
3 5 8 7
3 6 7 9
3 7 10 9
3 7 8 10
3 8 11 10
3 9 10 12
3 10 13 12
3 10 11 13
3 11 14 13
3 12 13 15
3 13 16 15
3 13 14 16
3 14 17 16
3 15 16 18
3 18 16 19
3 19 16 20
3 16 17 20
3 21 22 24
3 22 25 24
3 22 23 25
3 23 26 25
3 24 25 27
3 25 28 27
3 25 26 28
3 26 29 28
3 27 28 30
3 28 31 30
3 28 29 31
3 29 32 31
3 30 31 33
3 31 34 33
3 31 32 34
3 32 35 34
3 33 34 36
3 34 37 36
3 34 35 37
3 35 38 37
3 36 37 39
3 39 37 40
3 40 37 41
3 37 38 41
3 42 43 45
3 43 46 45
3 43 44 46
3 44 47 46
3 45 46 48
3 46 49 48
3 46 47 49
3 47 50 49
3 48 49 51
3 49 52 51
3 49 50 52
3 50 53 52
3 51 52 54
3 52 55 54
3 52 53 55
3 53 56 55
3 54 55 57
3 55 58 57
3 55 56 58
3 56 59 58
3 57 58 60
3 60 58 61
3 61 58 62
3 58 59 62
3 63 64 66
3 64 67 66
3 64 65 67
3 65 68 67
3 66 67 69
3 67 70 69
3 67 68 70
3 68 71 70
3 69 70 72
3 70 73 72
3 70 71 73
3 71 74 73
3 72 73 75
3 73 76 75
3 73 74 76
3 74 77 76
3 75 76 78
3 76 79 78
3 76 77 79
3 77 80 79
3 78 79 81
3 81 79 82
3 82 79 83
3 79 80 83
3 84 85 87
3 85 88 87
3 85 86 88
3 86 89 88
3 87 88 90
3 88 91 90
3 88 89 91
3 89 92 91
3 90 91 93
3 91 94 93
3 91 92 94
3 92 95 94
3 93 94 96
3 94 97 96
3 94 95 97
3 95 98 97
3 96 97 99
3 97 100 99
3 97 98 100
3 98 101 100
3 99 100 102
3 102 100 103
3 103 100 104
3 100 101 104
3 105 106 108
3 106 109 108
3 106 107 109
3 107 110 109
3 108 109 111
3 109 112 111
3 109 110 112
3 110 113 112
3 111 112 114
3 112 115 114
3 112 113 115
3 113 116 115
3 114 115 117
3 115 118 117
3 118 115 119
3 119 115 120
3 115 116 120
3 120 116 121
3 117 118 122
3 118 123 122
3 118 119 123
3 119 124 123
3 119 120 124
3 120 125 124
3 120 121 125
3 121 126 125
3 122 123 127
3 123 128 127
3 123 124 128
3 124 129 128
3 124 125 129
3 125 130 129
3 125 126 130
3 126 131 130
3 127 128 132
3 128 133 132
3 128 129 133
3 129 134 133
3 129 130 134
3 130 135 134
3 130 131 135
3 131 136 135
3 132 137 21
3 132 133 137
3 133 138 137
3 138 23 137
3 22 137 23
3 22 21 137
3 138 139 42
3 133 139 138
3 133 134 139
3 134 140 139
3 140 44 139
3 43 139 44
3 43 42 139
3 140 141 63
3 134 141 140
3 134 135 141
3 135 142 141
3 142 65 141
3 64 141 65
3 64 63 141
3 142 143 84
3 135 143 142
3 135 136 143
3 136 86 143
3 85 143 86
3 85 84 143
3 121 116 144
3 126 121 144
3 144 148 126
3 144 145 148
3 145 149 148
3 145 146 149
3 146 1 149
3 146 2 1
3 131 126 148
3 131 148 150
3 150 148 149
3 150 149 0
3 0 149 1
3 136 131 150
3 136 150 147
3 147 150 0
3 86 136 147
3 151 152 154
3 152 155 154
3 152 153 155
3 153 156 155
3 154 155 157
3 155 158 157
3 155 156 158
3 156 159 158
3 157 158 160
3 158 161 160
3 158 159 161
3 159 162 161
3 160 161 163
3 161 164 163
3 161 162 164
3 162 165 164
3 163 164 166
3 164 167 166
3 164 165 167
3 165 168 167
3 166 167 169
3 169 167 170
3 170 167 171
3 167 168 171
3 174 173 178
3 175 174 178
3 178 182 175
3 178 179 182
3 179 183 182
3 179 180 183
3 180 152 183
3 180 153 152
3 176 175 182
3 176 182 184
3 184 182 183
3 184 183 151
3 151 183 152
3 177 176 184
3 177 184 181
3 181 184 151
3 172 177 181
