ply
format ascii 1.0
element vertex 166
property float x
property float y
property float z
property float u
property float v
element face 205
property list uchar int vertex_indices
end_header
356.242 100.886 0 712.485 201.772
370.215 85.623 0 740.431 171.246
384.188 70.36 0 768.376 140.72
405.03 224.818 0 810.06 449.636
378.202 226.622 0 756.403 453.243
351.373 228.425 0 702.747 456.851
348.244 222.448 0 696.487 444.896
339.748 213.22 0 679.497 426.439
331.253 203.991 0 662.506 407.983
328.426 198.564 0 656.853 397.129
323.195 187.104 0 646.389 374.209
317.963 175.644 0 635.926 351.289
320.478 166.597 0 640.957 333.193
327.698 147.448 0 655.395 294.897
334.917 128.3 0 669.834 256.6
507.725 165.171 0 1015.45 330.341
510 125.631 0 1020 251.262
507.808 86.0909 0 1015.62 172.182
479.576 179.601 0 959.152 359.202
476.735 139.21 0 953.471 278.419
473.895 98.818 0 947.789 197.636
462.583 186.875 0 925.167 373.75
457.278 145.342 0 914.556 290.684
451.973 103.809 0 903.945 207.618
449.138 194.982 0 898.276 389.964
443.443 149.796 0 886.887 299.593
434.251 103.992 0 868.501 207.984
438.271 205.073 0 876.541 410.146
427.76 162.734 0 855.519 325.468
426.466 157.523 0 852.932 315.045
425.345 153.007 0 850.69 306.014
414.384 108.854 0 828.768 217.707
429.708 211.961 0 859.416 423.922
415.653 172.721 0 831.305 345.443
412.487 163.884 0 824.975 327.768
409.592 155.801 0 819.184 311.603
394.517 113.715 0 789.034 227.431
421.455 217.413 0 842.91 434.826
404.606 181.834 0 809.212 363.667
399.01 170.017 0 798.021 340.035
393.62 158.635 0 787.24 317.27
374.65 118.577 0 749.301 237.154
413.167 221.5 0 826.335 443
394.51 190.163 0 789.019 380.325
386.032 175.924 0 772.064 351.848
377.447 161.504 0 754.894 323.008
354.784 123.439 0 709.567 246.877
391.216 215.395 0 782.431 430.791
352.156 225.101 0 704.311 450.202
366.388 197.828 0 732.777 395.656
332.856 200.124 0 665.711 400.248
354.311 177.271 0 708.622 354.543
320.909 171.534 0 641.819 343.067
347.014 146.194 0 694.028 292.388
421.208 96.2957 0 842.417 192.591
408.844 87.7784 0 817.689 175.557
396.347 79.1818 0 792.694 158.364
351.405 117.737 0 702.809 235.474
386.416 104.351 0 772.833 208.702
378.316 94.9871 0 756.632 189.974
365.446 109.731 0 730.893 219.463
405.03 224.818 0 810.06 449.636
378.202 226.622 0 756.403 453.243
351.373 228.425 0 702.747 456.851
386.689 233.805 0 773.377 467.61
364.026 234.626 0 728.051 469.252
341.363 235.447 0 682.725 470.894
368.394 242.858 0 736.788 485.716
349.952 242.826 0 699.904 485.652
331.51 242.794 0 663.02 485.588
350.979 253.551 0 701.959 507.101
335.899 251.209 0 671.799 502.418
320.819 248.868 0 641.638 497.736
332.238 261.646 0 664.476 523.292
321.164 258.26 0 642.328 516.519
310.09 254.873 0 620.179 509.746
314.102 271.096 0 628.204 542.192
307.044 266.481 0 614.089 532.963
299.987 261.867 0 599.973 523.734
306.06 274.066 0 612.119 548.132
296.808 272.106 0 593.615 544.211
296.572 265.978 0 593.144 531.957
348.244 222.448 0 696.487 444.896
339.748 213.22 0 679.497 426.439
331.253 203.991 0 662.506 407.983
332.128 228.834 0 664.256 457.668
324.681 219.616 0 649.363 439.231
317.234 210.398 0 634.469 420.795
316.03 235.556 0 632.059 471.112
309.614 226.252 0 619.229 452.504
303.199 216.948 0 606.399 433.897
299.181 240.252 0 598.363 480.503
294.057 231.616 0 588.114 463.233
288.933 222.981 0 577.866 445.962
282.703 246.085 0 565.405 492.169
278.494 237.035 0 556.989 474.069
274.286 227.984 0 548.572 455.969
265.736 250.151 0 531.471 500.303
262.667 241.526 0 525.334 483.053
259.599 232.901 0 519.198 465.803
257.947 249.994 0 515.894 499.988
251.888 243.984 0 503.776 487.969
253.602 236.793 0 507.204 473.587
328.426 198.564 0 656.853 397.129
323.195 187.104 0 646.389 374.209
317.963 175.644 0 635.926 351.289
311.919 203.046 0 623.838 406.092
306.432 192.059 0 612.863 384.118
300.944 181.072 0 601.888 362.145
295.451 207.782 0 590.902 415.564
289.481 196.535 0 578.961 393.069
283.511 185.287 0 567.021 370.574
278.585 210.717 0 557.17 421.434
272.616 201.048 0 545.232 402.097
266.647 191.38 0 533.295 382.759
261.98 214.891 0 523.961 429.782
255.789 205.914 0 511.579 411.827
249.598 196.936 0 499.197 393.872
245.683 220.171 0 491.367 440.342
239.481 212.253 0 478.962 424.507
233.279 204.335 0 466.557 408.671
238.019 221.662 0 476.038 443.324
229.963 219.422 0 459.926 438.844
228.541 211.079 0 457.082 422.157
320.478 166.597 0 640.957 333.193
327.698 147.448 0 655.395 294.897
334.917 128.3 0 669.834 256.6
307.042 158.736 0 614.085 317.472
311.246 146.259 0 622.492 292.517
315.45 133.781 0 630.9 267.563
289.678 158.978 0 579.357 317.956
292.426 145.893 0 584.852 291.786
295.173 132.808 0 590.347 265.616
272.387 157.386 0 544.774 314.772
273.654 145.204 0 547.307 290.408
274.92 133.022 0 549.841 266.043
255.044 156.541 0 510.089 313.082
254.845 145.38 0 509.69 290.761
254.646 134.22 0 509.292 268.439
237.691 156.035 0 475.382 312.071
236.153 146.683 0 472.307 293.366
234.616 137.33 0 469.232 274.661
230.082 155.337 0 460.163 310.674
223.61 149.809 0 447.22 299.617
226.802 141.101 0 453.605 282.201
356.242 100.886 0 712.485 201.772
370.215 85.623 0 740.431 171.246
384.188 70.36 0 768.376 140.72
350.949 93.6267 0 701.897 187.253
363.173 80.933 0 726.346 161.866
375.398 68.2393 0 750.795 136.479
340.519 86.636 0 681.039 173.272
351.795 76.4506 0 703.59 152.901
363.07 66.2652 0 726.141 132.53
327.631 80.3952 0 655.262 160.79
338.625 70.9959 0 677.25 141.992
349.619 61.5966 0 699.238 123.193
314.105 72.9616 0 628.21 145.923
324.634 64.4753 0 649.268 128.951
335.163 55.989 0 670.327 111.978
304.181 59.766 0 608.361 119.532
311.923 55.0478 0 623.846 110.096
319.665 50.3295 0 639.33 100.659
302.287 52.7739 0 604.574 105.548
305.412 45.3083 0 610.824 90.6165
313.343 46.5496 0 626.687 93.0992
3 15 18 16
3 16 18 19
3 16 19 17
3 17 19 20
3 18 21 19
3 19 21 22
3 19 22 20
3 20 22 23
3 21 24 22
3 22 24 25
3 22 25 23
3 23 25 26
3 24 27 25
3 25 27 28
3 28 29 25
3 29 30 25
3 25 30 26
3 30 31 26
3 27 32 28
3 28 32 33
3 28 33 29
3 29 33 34
3 29 34 30
3 30 34 35
3 30 35 31
3 31 35 36
3 32 37 33
3 33 37 38
3 33 38 34
3 34 38 39
3 34 39 35
3 35 39 40
3 35 40 36
3 36 40 41
3 37 42 38
3 38 42 43
3 38 43 39
3 39 43 44
3 39 44 40
3 40 44 45
3 40 45 41
3 41 45 46
3 42 3 47
3 42 47 43
3 43 47 48
3 48 47 5
3 4 5 47
3 4 47 3
3 48 6 49
3 43 48 49
3 43 49 44
3 44 49 50
3 50 49 8
3 7 8 49
3 7 49 6
3 50 9 51
3 44 50 51
3 44 51 45
3 45 51 52
3 52 51 11
3 10 11 51
3 10 51 9
3 52 12 53
3 45 52 53
3 45 53 46
3 46 53 14
3 13 14 53
3 13 53 12
3 26 31 54
3 31 36 54
3 54 36 58
3 54 58 55
3 55 58 59
3 55 59 56
3 56 59 1
3 56 1 2
3 41 58 36
3 41 60 58
3 60 59 58
3 60 0 59
3 0 1 59
3 46 60 41
3 46 57 60
3 57 0 60
3 46 14 57
3 61 64 62
3 62 64 65
3 62 65 63
3 63 65 66
3 64 67 65
3 65 67 68
3 65 68 66
3 66 68 69
3 67 70 68
3 68 70 71
3 68 71 69
3 69 71 72
3 70 73 71
3 71 73 74
3 71 74 72
3 72 74 75
3 73 76 74
3 74 76 77
3 74 77 75
3 75 77 78
3 76 79 77
3 79 80 77
3 80 81 77
3 77 81 78
3 82 85 83
3 83 85 86
3 83 86 84
3 84 86 87
3 85 88 86
3 86 88 89
3 86 89 87
3 87 89 90
3 88 91 89
3 89 91 92
3 89 92 90
3 90 92 93
3 91 94 92
3 92 94 95
3 92 95 93
3 93 95 96
3 94 97 95
3 95 97 98
3 95 98 96
3 96 98 99
3 97 100 98
3 100 101 98
3 101 102 98
3 98 102 99
3 103 106 104
3 104 106 107
3 104 107 105
3 105 107 108
3 106 109 107
3 107 109 110
3 107 110 108
3 108 110 111
3 109 112 110
3 110 112 113
3 110 113 111
3 111 113 114
3 112 115 113
3 113 115 116
3 113 116 114
3 114 116 117
3 115 118 116
3 116 118 119
3 116 119 117
3 117 119 120
3 118 121 119
3 121 122 119
3 122 123 119
3 119 123 120
3 124 127 125
3 125 127 128
3 125 128 126
3 126 128 129
3 127 130 128
3 128 130 131
3 128 131 129
3 129 131 132
3 130 133 131
3 131 133 134
3 131 134 132
3 132 134 135
3 133 136 134
3 134 136 137
3 134 137 135
3 135 137 138
3 136 139 137
3 137 139 140
3 137 140 138
3 138 140 141
3 139 142 140
3 142 143 140
3 143 144 140
3 140 144 141
3 145 148 146
3 146 148 149
3 146 149 147
3 147 149 150
3 148 151 149
3 149 151 152
3 149 152 150
3 150 152 153
3 151 154 152
3 152 154 155
3 152 155 153
3 153 155 156
3 154 157 155
3 155 157 158
3 155 158 156
3 156 158 159
3 157 160 158
3 158 160 161
3 158 161 159
3 159 161 162
3 160 163 161
3 163 164 161
3 164 165 161
3 161 165 162
