ply
format ascii 1.0
element vertex 11
property float x
property float y
property float z
property float u
property float v
element face 10
property list uchar int vertex_indices
end_header
410.523 176.806 0 821.049 353.614
417.912 133.494 0 835.829 266.99
375.372 184.354 0 750.75 368.71
390.428 129.837 0 780.865 259.677
362.249 182.351 0 724.506 364.704
369.089 129.323 0 738.189 258.651
345.92 179.858 0 691.848 359.719
347.75 128.81 0 695.512 257.624
329.208 177.307 0 658.427 354.618
326.411 128.297 0 652.836 256.598
379.186 118.605 0 758.386 237.216
3 0 2 1
3 1 2 3
3 2 4 3
3 4 5 3
3 4 6 5
3 5 6 7
3 6 8 7
3 7 8 9
3 3 5 10
3 5 7 10
