ply
format ascii 1.0
element vertex 151
property float x
property float y
property float z
property float u
property float v
element face 173
property list uchar int vertex_indices
end_header
324.717 272.128 0 649.433 544.255
350.999 275.73 0 701.997 551.46
377.281 279.332 0 754.561 558.664
320.442 277.667 0 640.884 555.334
344.584 282.007 0 689.168 564.013
368.727 286.346 0 737.453 572.692
311.886 282.977 0 623.773 565.954
333.866 288.74 0 667.731 577.48
355.845 294.503 0 711.69 589.006
301.719 288.255 0 603.438 576.509
321.077 295.39 0 642.154 590.781
340.435 302.526 0 680.87 605.052
291.917 295.839 0 583.834 591.678
307.812 303.58 0 615.624 607.161
323.707 311.322 0 647.413 622.643
284.819 306.988 0 569.638 613.976
294.329 310.595 0 588.658 621.19
303.839 314.202 0 607.678 628.404
283.622 312.973 0 567.244 625.946
285.588 318.967 0 571.175 637.935
294.983 317.255 0 589.965 634.51
327.554 130.781 0 655.107 261.562
313.139 137.765 0 626.278 275.531
298.725 144.75 0 597.449 289.5
294.704 149.404 0 589.409 298.808
281.639 160.379 0 563.278 320.757
268.574 171.353 0 537.147 342.706
268.416 175.547 0 536.832 351.095
271.929 192.665 0 543.858 385.33
275.442 209.782 0 550.883 419.565
276.397 217.571 0 552.794 435.142
286.311 235.49 0 572.623 470.979
296.225 253.409 0 592.451 506.817
507.411 185.818 0 1014.82 371.636
510 240.769 0 1020 481.537
510 295.72 0 1020 591.439
465.012 176.726 0 930.024 353.452
463.978 227.011 0 927.955 454.023
462.943 277.297 0 925.886 554.594
439.01 170.751 0 878.019 341.503
437.437 218.067 0 874.874 436.133
435.864 265.382 0 871.728 530.764
420.611 160.793 0 841.221 321.585
411.212 189.915 0 822.424 379.83
412.065 257.699 0 824.13 515.398
394.531 160.71 0 789.062 321.419
393.213 183.207 0 786.425 366.414
392.944 187.789 0 785.888 375.579
392.624 193.256 0 785.247 386.513
388.897 256.841 0 777.794 513.682
376.193 150.927 0 752.386 301.853
373.702 175.935 0 747.404 351.871
372.755 185.44 0 745.511 370.881
371.601 197.035 0 743.201 394.07
365.729 255.983 0 731.458 511.966
359.161 143.272 0 718.322 286.544
355.33 169.088 0 710.659 338.176
353.24 183.169 0 706.48 366.339
350.622 200.806 0 701.245 401.612
342.561 255.125 0 685.123 510.249
342.518 137.912 0 685.036 275.825
337.633 162.492 0 675.266 324.985
333.969 180.927 0 667.938 361.854
329.255 204.647 0 658.51 409.294
319.393 254.267 0 638.787 508.533
326.612 144.796 0 653.224 289.592
298.742 147.998 0 597.485 295.996
310.501 166.273 0 621.001 332.547
271.658 173.676 0 543.317 347.353
303.208 193.28 0 606.416 386.56
277.949 213.869 0 555.899 427.738
305.706 231.548 0 611.412 463.095
402.353 259.545 0 804.707 519.09
391.98 265.241 0 783.96 530.481
384.279 272.266 0 768.557 544.532
312.249 259.869 0 624.499 519.738
360.819 262.565 0 721.638 525.13
355.909 269.147 0 711.818 538.295
333.639 263.626 0 667.278 527.252
327.554 130.781 0 655.107 261.562
313.139 137.765 0 626.278 275.531
298.725 144.75 0 597.449 289.5
315.711 122.23 0 632.212 244.803
303.759 128.971 0 608.302 257.777
292.039 135.586 0 584.392 270.75
315.711 122.23 0 586.727 210.864
303.759 128.971 0 568.885 224.959
292.039 135.586 0 551.043 239.055
303.868 113.679 0 563.17 195.057
294.378 120.177 0 547.948 210.104
285.354 126.422 0 532.726 225.152
291.508 106.153 0 537.33 183.585
285.083 111.658 0 526.815 196.417
278.758 117.11 0 516.3 209.248
285.581 104.443 0 525.263 182.083
279.397 106.567 0 513.859 188.335
277.672 111.742 0 512.258 199.096
294.704 149.404 0 589.409 298.808
281.639 160.379 0 563.278 320.757
268.574 171.353 0 537.147 342.706
279.029 145.478 0 559.66 289.3
267.511 155.852 0 535.692 310.874
256.165 166.071 0 511.723 332.449
279.029 145.478 0 499.487 272.118
267.511 155.852 0 479.94 292.649
256.165 166.071 0 460.393 313.179
263.354 141.552 0 468.872 265.625
253.383 151.325 0 451.462 285.631
243.757 160.788 0 434.052 305.637
247.756 138.05 0 438.062 260.166
240.239 145.641 0 424.448 276.244
232.797 153.165 0 410.834 292.322
240.467 137.343 0 423.57 259.72
233.684 140.689 0 410.604 267.389
231.422 146.957 0 407.083 280.211
268.416 175.547 0 536.832 351.095
271.929 192.665 0 543.858 385.33
275.442 209.782 0 550.883 419.565
254.656 177.369 0 508.901 350.135
256.528 192.434 0 513.178 380.861
258.369 207.276 0 517.455 411.587
254.656 177.369 0 453.023 346.672
256.528 192.434 0 451.068 373.814
258.369 207.276 0 449.114 400.957
240.896 179.191 0 425.066 345.243
241.128 192.204 0 420.187 369.426
241.297 204.769 0 415.309 393.609
227.107 181.627 0 397.164 343.077
225.659 192.496 0 389.816 363.441
224.197 203.269 0 382.467 383.806
221.134 184.099 0 384.463 345.205
217.116 189.634 0 374.299 354.291
218.135 197.598 0 372.971 370.26
276.397 217.571 0 552.794 435.142
286.311 235.49 0 572.623 470.979
296.226 253.409 0 592.451 506.817
263.422 222.334 0 526.053 443.236
270.539 237.776 0 540.901 474.227
277.479 252.852 0 555.748 505.218
263.422 222.334 0 469.171 447.98
270.539 237.776 0 475.738 474.686
277.479 252.852 0 482.304 501.392
250.448 227.097 0 440.651 446.84
254.766 240.063 0 443.22 471.591
258.733 252.295 0 445.789 496.343
237.068 231.354 0 412.209 447.644
238.705 241.536 0 411.13 467.738
240.266 251.56 0 410.051 487.831
231.589 235.092 0 399.862 452.349
228.661 241.355 0 391.544 463.306
232.931 248.775 0 396.859 479.517
3 0 1 3
3 1 4 3
3 1 2 4
3 2 5 4
3 3 4 6
3 4 7 6
3 4 5 7
3 5 8 7
3 6 7 9
3 7 10 9
3 7 8 10
3 8 11 10
3 9 10 12
3 10 13 12
3 10 11 13
3 11 14 13
3 12 13 15
3 13 16 15
3 13 14 16
3 14 17 16
3 15 16 18
3 18 16 19
3 19 16 20
3 16 17 20
3 33 34 36
3 34 37 36
3 34 35 37
3 35 38 37
3 36 37 39
3 37 40 39
3 37 38 40
3 38 41 40
3 39 40 42
3 40 43 42
3 40 41 43
3 41 44 43
3 42 43 45
3 43 46 45
3 46 43 47
3 47 43 48
3 43 44 48
3 48 44 49
3 45 46 50
3 46 51 50
3 46 47 51
3 47 52 51
3 47 48 52
3 48 53 52
3 48 49 53
3 49 54 53
3 50 51 55
3 51 56 55
3 51 52 56
3 52 57 56
3 52 53 57
3 53 58 57
3 53 54 58
3 54 59 58
3 55 56 60
3 56 61 60
3 56 57 61
3 57 62 61
3 57 58 62
3 58 63 62
3 58 59 63
3 59 64 63
3 60 65 21
3 60 61 65
3 61 66 65
3 66 23 65
3 22 65 23
3 22 21 65
3 66 67 24
3 61 67 66
3 61 62 67
3 62 68 67
3 68 26 67
3 25 67 26
3 25 24 67
3 68 69 27
3 62 69 68
3 62 63 69
3 63 70 69
3 70 29 69
3 28 69 29
3 28 27 69
3 70 71 30
3 63 71 70
3 63 64 71
3 64 32 71
3 31 71 32
3 31 30 71
3 49 44 72
3 54 49 72
3 72 76 54
3 72 73 76
3 73 77 76
3 73 74 77
3 74 1 77
3 74 2 1
3 59 54 76
3 59 76 78
3 78 76 77
3 78 77 0
3 0 77 1
3 64 59 78
3 64 78 75
3 75 78 0
3 32 64 75
3 79 80 82
3 80 83 82
3 80 81 83
3 81 84 83
3 85 86 88
3 86 89 88
3 86 87 89
3 87 90 89
3 88 89 91
3 89 92 91
3 89 90 92
3 90 93 92
3 91 92 94
3 94 92 95
3 95 92 96
3 92 93 96
3 97 98 100
3 98 101 100
3 98 99 101
3 99 102 101
3 103 104 106
3 104 107 106
3 104 105 107
3 105 108 107
3 106 107 109
3 107 110 109
3 107 108 110
3 108 111 110
3 109 110 112
3 112 110 113
3 113 110 114
3 110 111 114
3 115 116 118
3 116 119 118
3 116 117 119
3 117 120 119
3 121 122 124
3 122 125 124
3 122 123 125
3 123 126 125
3 124 125 127
3 125 128 127
3 125 126 128
3 126 129 128
3 127 128 130
3 130 128 131
3 131 128 132
3 128 129 132
3 133 134 136
3 134 137 136
3 134 135 137
3 135 138 137
3 139 140 142
3 140 143 142
3 140 141 143
3 141 144 143
3 142 143 145
3 143 146 145
3 143 144 146
3 144 147 146
3 145 146 148
3 148 146 149
3 149 146 150
3 146 147 150
