ply
format ascii 1.0
element vertex 235
property float x
property float y
property float z
property float u
property float v
element face 237
property list uchar int vertex_indices
end_header
314.33 260.804 0 628.661 521.608
336.745 267.862 0 673.49 535.723
359.159 274.919 0 718.319 549.839
309.456 265.971 0 618.912 531.942
330.127 273.255 0 660.255 546.51
350.799 280.539 0 701.598 561.077
300.167 270.615 0 600.335 541.23
319.216 278.565 0 638.432 557.131
338.265 286.516 0 676.529 573.031
289.648 276.024 0 579.297 552.048
306.716 284.459 0 613.432 568.917
323.783 292.894 0 647.567 585.787
280.05 284.492 0 560.101 568.984
294.085 292.238 0 588.171 584.475
308.12 299.983 0 616.241 599.967
273.238 296.291 0 546.476 592.582
281.798 300.358 0 563.597 600.717
290.359 304.425 0 580.718 608.851
272.385 302.596 0 544.77 605.193
274.27 308.865 0 548.541 617.73
283.008 307.988 0 566.015 615.976
317.898 121.101 0 635.797 242.203
301.795 127.285 0 603.589 254.569
285.691 133.468 0 571.382 266.936
281.135 138.7 0 562.27 277.399
272.296 151.783 0 544.591 303.567
263.456 164.867 0 526.913 329.735
261.403 169.53 0 522.806 339.06
261.526 185.432 0 523.052 370.864
261.649 201.335 0 523.298 402.669
262.432 209.388 0 524.864 418.777
273.643 226.257 0 547.287 452.513
284.855 243.125 0 569.71 486.249
507.03 183.163 0 1014.06 366.327
510 240.445 0 1020 480.889
510 297.726 0 1020 595.452
455.99 169.398 0 911.98 338.796
456.543 220.834 0 913.086 441.668
457.096 272.27 0 914.192 544.54
425.746 162.528 0 851.492 325.056
425.974 209.886 0 851.947 419.772
426.202 257.245 0 852.403 514.489
401.41 152.823 0 802.82 305.646
393.786 182.466 0 787.572 364.932
398.741 247.544 0 797.482 495.088
377.373 147.423 0 754.747 294.847
376.976 175.401 0 753.952 350.803
376.902 180.58 0 753.805 361.16
376.833 185.472 0 753.666 370.944
375.964 246.66 0 751.928 493.32
361.259 138.542 0 722.518 277.085
359.051 167.868 0 718.103 335.736
358.251 178.496 0 716.502 356.993
357.468 188.905 0 714.935 377.81
353.187 245.776 0 706.373 491.553
345.966 132.192 0 691.932 264.384
342.029 160.714 0 684.058 321.428
339.858 176.442 0 679.716 352.883
337.653 192.418 0 675.305 384.837
330.409 244.892 0 660.819 489.785
331.417 126.914 0 662.833 253.827
325.926 153.946 0 651.852 307.893
321.767 174.421 0 643.534 348.841
317.381 196.012 0 634.762 392.025
307.632 244.009 0 615.264 488.017
315.098 134.693 0 630.196 269.386
285.152 136.81 0 570.304 273.62
299.601 158.33 0 599.202 316.659
265.559 168.142 0 531.118 336.283
292.186 186.011 0 584.372 372.022
264.038 205.47 0 528.075 410.939
293.476 222.154 0 586.953 444.308
386.884 250.957 0 773.767 501.914
376.599 258.777 0 753.198 517.555
368.08 267.05 0 736.16 534.1
301.127 249.49 0 602.255 498.98
347.706 253.138 0 695.412 506.276
342.225 260.5 0 684.451 521
322.37 252.848 0 644.74 505.696
317.898 121.101 0 635.797 242.203
301.795 127.285 0 603.589 254.569
285.691 133.468 0 571.382 266.936
306.309 112.532 0 612.619 225.064
293.164 117.847 0 586.329 235.694
280.019 123.162 0 560.038 246.324
297.679 103.094 0 635.797 242.203
284.534 108.409 0 603.589 254.569
271.389 113.724 0 571.382 266.936
286.549 93.9164 0 612.619 225.064
274.991 99.3951 0 586.329 235.694
263.434 104.874 0 560.038 246.324
275.475 84.6646 0 590.359 206.708
265.351 90.4602 0 567.243 217.666
255.227 96.2559 0 544.128 228.623
265.835 75.7296 0 568.211 188.204
255.711 81.5253 0 547.963 199.796
245.587 87.3209 0 527.715 211.387
254.856 66.3667 0 546.252 169.478
245.819 72.8407 0 528.178 182.427
236.781 79.3148 0 510.104 195.375
242.632 58.7728 0 521.804 154.291
236.123 64.354 0 508.787 165.453
229.615 69.9351 0 495.77 176.615
236.711 57.0326 0 509.962 150.81
230.392 59.0938 0 497.325 154.933
228.503 64.3678 0 493.547 165.481
275.475 84.6646 0 590.359 206.708
265.351 90.4602 0 567.243 217.666
255.227 96.2559 0 544.128 228.623
265.835 75.7296 0 568.211 188.204
255.711 81.5253 0 547.963 199.796
245.587 87.3209 0 527.715 211.387
306.309 112.532 0 612.619 225.064
293.164 117.847 0 586.329 235.694
280.019 123.162 0 560.038 246.324
297.679 103.094 0 590.359 206.708
284.534 108.409 0 567.243 217.666
271.389 113.724 0 544.128 228.623
281.135 138.7 0 562.27 277.399
272.296 151.783 0 544.591 303.567
263.456 164.867 0 526.913 329.735
265.857 134.229 0 531.714 268.457
257.713 146.838 0 515.427 293.675
249.569 159.447 0 499.139 318.894
251.275 129.283 0 562.27 277.399
243.131 141.892 0 544.591 303.567
234.987 154.501 0 526.913 329.735
235.855 124.955 0 531.714 268.457
228.577 136.766 0 515.427 293.675
221.3 148.577 0 499.139 318.894
220.494 120.364 0 500.875 259.801
213.986 131.673 0 486.319 283.423
207.479 142.982 0 471.764 307.046
205.903 115.271 0 470.152 250.62
199.395 126.581 0 457.137 273.238
192.888 137.89 0 444.122 295.856
190.37 111.301 0 439.086 242.678
184.725 121.778 0 427.796 263.633
179.08 132.255 0 416.506 284.588
174.8 107.55 0 407.947 235.176
170.138 116.928 0 398.622 253.933
165.475 126.306 0 389.297 272.69
167.318 108.254 0 392.983 236.585
161.798 113.489 0 381.942 247.054
161.475 120.57 0 381.298 261.217
220.494 120.364 0 500.875 259.801
213.986 131.673 0 486.319 283.423
207.479 142.982 0 471.764 307.046
205.903 115.271 0 470.152 250.62
199.395 126.581 0 457.137 273.238
192.888 137.89 0 444.122 295.856
265.857 134.229 0 531.714 268.457
257.713 146.838 0 515.427 293.675
249.569 159.447 0 499.139 318.894
251.275 129.283 0 500.875 259.801
243.131 141.892 0 486.319 283.423
234.987 154.501 0 471.764 307.046
261.403 169.53 0 522.806 339.06
261.526 185.432 0 523.052 370.864
261.649 201.335 0 523.298 402.669
245.855 168.781 0 491.709 337.562
245.226 183.639 0 490.451 367.278
244.596 198.497 0 489.193 396.993
229.554 166.988 0 522.806 339.06
228.925 181.846 0 523.052 370.864
228.296 196.703 0 523.298 402.669
213.994 166.336 0 491.709 337.562
212.465 180.878 0 490.451 367.278
210.935 195.419 0 489.193 396.993
198.421 166.207 0 460.589 336.259
196.027 179.85 0 457.53 365.342
193.634 193.494 0 454.471 394.425
181.984 165.179 0 429.443 336
179.59 178.823 0 424.656 363.287
177.197 192.467 0 419.869 390.575
166.409 165.179 0 398.294 336
163.167 177.748 0 391.809 361.137
159.924 190.316 0 385.323 386.274
150.835 165.225 0 367.146 336.09
147.003 175.667 0 359.482 356.975
143.171 186.109 0 351.818 377.86
143.707 166.379 0 352.89 338.399
138.227 171.498 0 341.929 348.637
137.996 179.493 0 341.468 364.626
198.421 166.207 0 460.589 336.259
196.027 179.85 0 457.53 365.342
193.634 193.494 0 454.471 394.425
181.984 165.179 0 429.443 336
179.59 178.823 0 424.656 363.287
177.197 192.467 0 419.869 390.575
245.855 168.781 0 491.709 337.562
245.226 183.639 0 490.451 367.278
244.596 198.497 0 489.193 396.993
229.554 166.988 0 460.589 336.259
228.925 181.846 0 457.53 365.342
228.296 196.703 0 454.471 394.425
262.432 209.388 0 524.864 418.777
273.643 226.257 0 547.287 452.513
284.855 243.125 0 569.71 486.249
249.294 215.769 0 498.588 431.537
257.812 229.957 0 515.625 459.914
266.33 244.145 0 532.661 488.291
233.463 219.469 0 524.864 418.777
241.981 233.658 0 547.287 452.513
250.499 247.846 0 569.71 486.249
218.937 222.843 0 498.588 431.537
225.463 236.489 0 515.625 459.914
231.989 250.135 0 532.661 488.291
204.281 225.586 0 469.536 438.285
208.815 238.143 0 482.589 465.577
213.349 250.701 0 495.641 492.869
187.633 227.24 0 440.224 443.77
192.167 239.797 0 449.292 468.885
196.701 252.355 0 458.36 494
172.776 228.356 0 410.512 446.002
175.41 240.355 0 415.778 470.001
178.043 252.355 0 421.045 494
158.043 230.172 0 381.045 449.634
158.779 240.442 0 382.517 470.175
159.514 250.712 0 383.988 490.716
151.971 233.407 0 368.9 456.104
148.491 239.707 0 361.94 468.705
152.331 247.461 0 369.621 484.213
204.281 225.586 0 469.536 438.285
208.815 238.143 0 482.589 465.577
213.349 250.701 0 495.641 492.869
187.633 227.24 0 440.224 443.77
192.167 239.797 0 449.292 468.885
196.701 252.355 0 458.36 494
249.294 215.769 0 498.588 431.537
257.812 229.957 0 515.625 459.914
266.33 244.145 0 532.661 488.291
233.463 219.469 0 469.536 438.285
241.981 233.658 0 482.589 465.577
250.499 247.846 0 495.641 492.869
3 0 1 3
3 1 4 3
3 1 2 4
3 2 5 4
3 3 4 6
3 4 7 6
3 4 5 7
3 5 8 7
3 6 7 9
3 7 10 9
3 7 8 10
3 8 11 10
3 9 10 12
3 10 13 12
3 10 11 13
3 11 14 13
3 12 13 15
3 13 16 15
3 13 14 16
3 14 17 16
3 15 16 18
3 18 16 19
3 19 16 20
3 16 17 20
3 33 34 36
3 34 37 36
3 34 35 37
3 35 38 37
3 36 37 39
3 37 40 39
3 37 38 40
3 38 41 40
3 39 40 42
3 40 43 42
3 40 41 43
3 41 44 43
3 42 43 45
3 43 46 45
3 46 43 47
3 47 43 48
3 43 44 48
3 48 44 49
3 45 46 50
3 46 51 50
3 46 47 51
3 47 52 51
3 47 48 52
3 48 53 52
3 48 49 53
3 49 54 53
3 50 51 55
3 51 56 55
3 51 52 56
3 52 57 56
3 52 53 57
3 53 58 57
3 53 54 58
3 54 59 58
3 55 56 60
3 56 61 60
3 56 57 61
3 57 62 61
3 57 58 62
3 58 63 62
3 58 59 63
3 59 64 63
3 60 65 21
3 60 61 65
3 61 66 65
3 66 23 65
3 22 65 23
3 22 21 65
3 66 67 24
3 61 67 66
3 61 62 67
3 62 68 67
3 68 26 67
3 25 67 26
3 25 24 67
3 68 69 27
3 62 69 68
3 62 63 69
3 63 70 69
3 70 29 69
3 28 69 29
3 28 27 69
3 70 71 30
3 63 71 70
3 63 64 71
3 64 32 71
3 31 71 32
3 31 30 71
3 49 44 72
3 54 49 72
3 72 76 54
3 72 73 76
3 73 77 76
3 73 74 77
3 74 1 77
3 74 2 1
3 59 54 76
3 59 76 78
3 78 76 77
3 78 77 0
3 0 77 1
3 64 59 78
3 64 78 75
3 75 78 0
3 32 64 75
3 79 80 82
3 80 83 82
3 80 81 83
3 81 84 83
3 85 86 88
3 86 89 88
3 86 87 89
3 87 90 89
3 88 89 91
3 89 92 91
3 89 90 92
3 90 93 92
3 94 95 97
3 95 98 97
3 95 96 98
3 96 99 98
3 97 98 100
3 98 101 100
3 98 99 101
3 99 102 101
3 100 101 103
3 103 101 104
3 104 101 105
3 101 102 105
3 106 107 109
3 107 110 109
3 107 108 110
3 108 111 110
3 112 113 115
3 113 116 115
3 113 114 116
3 114 117 116
3 118 119 121
3 119 122 121
3 119 120 122
3 120 123 122
3 124 125 127
3 125 128 127
3 125 126 128
3 126 129 128
3 127 128 130
3 128 131 130
3 128 129 131
3 129 132 131
3 133 134 136
3 134 137 136
3 134 135 137
3 135 138 137
3 136 137 139
3 137 140 139
3 137 138 140
3 138 141 140
3 139 140 142
3 142 140 143
3 143 140 144
3 140 141 144
3 145 146 148
3 146 149 148
3 146 147 149
3 147 150 149
3 151 152 154
3 152 155 154
3 152 153 155
3 153 156 155
3 157 158 160
3 158 161 160
3 158 159 161
3 159 162 161
3 163 164 166
3 164 167 166
3 164 165 167
3 165 168 167
3 166 167 169
3 167 170 169
3 167 168 170
3 168 171 170
3 172 173 175
3 173 176 175
3 173 174 176
3 174 177 176
3 175 176 178
3 176 179 178
3 176 177 179
3 177 180 179
3 178 179 181
3 181 179 182
3 182 179 183
3 179 180 183
3 184 185 187
3 185 188 187
3 185 186 188
3 186 189 188
3 190 191 193
3 191 194 193
3 191 192 194
3 192 195 194
3 196 197 199
3 197 200 199
3 197 198 200
3 198 201 200
3 202 203 205
3 203 206 205
3 203 204 206
3 204 207 206
3 205 206 208
3 206 209 208
3 206 207 209
3 207 210 209
3 211 212 214
3 212 215 214
3 212 213 215
3 213 216 215
3 214 215 217
3 215 218 217
3 215 216 218
3 216 219 218
3 217 218 220
3 220 218 221
3 221 218 222
3 218 219 222
3 223 224 226
3 224 227 226
3 224 225 227
3 225 228 227
3 229 230 232
3 230 233 232
3 230 231 233
3 231 234 233
