ply
format ascii 1.0
element vertex 157
property float x
property float y
property float z
property float u
property float v
element face 205
property list uchar int vertex_indices
end_header
337.026 122.285 0 674.051 244.571
320.778 127.08 0 641.555 254.157
304.53 131.873 0 609.058 263.743
327.974 111.914 0 655.948 223.827
315.041 116.018 0 630.082 232.033
302.109 120.12 0 604.217 240.238
319.332 101.192 0 638.665 202.38
307.791 105.332 0 615.582 210.662
296.249 109.474 0 592.499 218.945
310.703 90.4573 0 621.408 180.912
300.368 94.7428 0 600.738 189.483
290.034 99.0286 0 580.067 198.054
302.348 79.5105 0 604.701 159.018
292.708 84.2851 0 585.423 168.567
283.071 89.0606 0 566.146 178.116
292.367 70.0835 0 584.738 140.164
285.056 74.1498 0 570.119 148.297
277.747 78.2167 0 555.5 156.429
287.096 67.3425 0 574.199 134.682
280.76 67.6267 0 561.526 135.253
277.607 72.7096 0 555.221 145.417
299.292 137.331 0 598.576 274.654
289.385 149.656 0 578.761 299.301
279.479 161.98 0 558.947 323.949
283.907 131.949 0 567.805 263.886
274.998 143.959 0 549.99 287.908
266.092 155.971 0 532.174 311.93
268.514 126.096 0 537.017 252.182
260.667 137.888 0 521.325 275.764
252.82 149.679 0 505.633 299.346
252.875 120.898 0 505.737 241.786
246.234 132.097 0 492.457 264.185
239.592 143.297 0 479.177 286.584
237.076 116.193 0 474.139 232.38
231.599 126.831 0 463.184 253.654
226.119 137.467 0 452.229 274.928
221.187 111.877 0 442.358 223.744
217.048 121.508 0 434.084 243.009
212.91 131.139 0 425.81 262.275
213.498 112.973 0 426.973 225.946
208.417 118.82 0 416.821 237.644
208.59 125.861 0 417.168 251.722
277.173 165.817 0 554.333 331.626
275.196 181.711 0 550.38 363.413
273.22 197.605 0 546.427 395.201
262.032 163.269 0 524.051 326.525
259.277 178.357 0 518.543 356.701
256.525 193.443 0 513.034 386.877
246.814 161.167 0 493.614 322.325
243.168 175.706 0 486.323 351.398
239.523 190.245 0 479.033 380.471
231.587 159.138 0 463.165 318.264
227.169 172.583 0 454.319 345.151
222.745 186.028 0 445.474 372.038
216.283 157.761 0 432.562 315.499
211.123 169.811 0 422.228 339.597
205.956 181.861 0 411.893 363.695
201.017 156.049 0 402.03 312.072
195.521 165.889 0 391.021 331.747
190.018 175.728 0 380.012 351.422
193.855 156.373 0 387.712 312.71
187.749 160.514 0 375.491 320.98
186.216 168.375 0 372.408 336.705
273.877 205.573 0 547.74 411.135
280.664 223.819 0 561.312 447.629
287.451 242.064 0 574.884 484.123
260.251 210.652 0 520.487 421.291
264.999 226.235 0 529.984 452.457
269.751 241.817 0 539.481 483.624
245.493 212.591 0 490.971 425.17
248.753 226.859 0 497.487 453.704
252.013 241.125 0 504.003 482.238
230.62 213.009 0 461.223 426
232.482 226.168 0 464.944 452.317
234.345 239.328 0 468.665 478.635
215.748 212.446 0 431.483 424.869
216.228 224.846 0 432.435 449.667
216.704 237.246 0 433.387 474.465
200.91 212.701 0 401.804 425.372
200.202 222.894 0 400.383 445.762
199.493 233.089 0 398.962 466.153
194.496 215.205 0 388.977 430.377
190.466 221.129 0 380.912 442.222
192.945 228.646 0 385.865 457.258
548.839 205.948 0 1015.89 379.584
510 245.741 0 1020 491.477
509.999 301.688 0 1020 603.369
495.461 191.553 0 929.747 356.358
461.625 228.244 0 923.249 456.484
458.374 278.307 0 916.75 556.611
463.459 185.358 0 878.1 346.36
433.58 218.68 0 867.159 437.358
428.109 264.178 0 856.218 528.355
437.989 175.578 0 836.995 330.579
408.22 195.38 0 816.438 390.758
400.537 257.685 0 801.068 515.368
408.317 164.519 0 789.108 312.73
389.742 184.768 0 779.482 369.535
388.733 190.73 0 777.462 381.459
387.78 196.358 0 775.555 392.713
377.919 254.562 0 755.831 509.119
388.244 152.437 0 756.711 293.233
372.182 174.684 0 744.363 349.367
369.655 186.18 0 739.305 372.356
367.201 197.343 0 734.394 394.681
355.301 251.44 0 710.594 502.87
370.396 141.215 0 727.908 275.122
356.083 165.439 0 712.163 330.875
351.454 181.837 0 702.902 363.67
346.803 198.32 0 693.594 396.631
332.684 248.316 0 665.358 496.621
352.573 132.704 0 699.143 261.385
340.644 156.572 0 681.282 313.14
333.413 177.533 0 666.816 355.061
325.897 199.319 0 651.78 398.63
310.067 245.189 0 620.121 490.372
332.64 136.172 0 665.278 272.342
303.321 135.138 0 606.636 270.272
314.712 158.596 0 629.416 317.187
281.471 165.142 0 562.93 330.275
304.097 185.93 0 608.184 371.851
275.61 201.724 0 551.208 403.439
299.758 222.074 0 599.498 444.141
363.076 122.663 0 629.219 520.249
386.644 126.802 0 673.45 539.995
410.502 130.752 0 717.681 559.74
361.104 116.571 0 619.37 529.203
383.268 119.19 0 659.457 549.044
405.47 121.761 0 699.544 568.885
355.158 108.938 0 601.016 535.999
375.941 109.839 0 637.013 556.89
396.724 110.718 0 673.01 577.781
347.686 100.779 0 579.556 541.98
366.911 99.7535 0 610.954 564.276
386.133 98.7151 0 642.351 586.573
341.808 90.308 0 558.384 553.554
358.045 88.1805 0 583.613 574.438
374.278 86.0461 0 608.841 595.323
339.376 77.746 0 540.891 572.32
348.999 76.9919 0 556.399 583.81
358.618 76.2391 0 571.907 595.3
340.607 71.9291 0 536.805 583.51
344.405 67.0216 0 538.047 595.862
352.446 70.5924 0 555.463 598.321
337.026 122.285 0 574.884 484.123
437.989 175.578 0 801.068 515.368
408.317 164.519 0 755.831 509.119
388.244 152.437 0 710.594 502.87
370.396 141.215 0 665.358 496.621
352.573 132.704 0 620.121 490.372
423.61 164.534 0 778.575 522.778
419.048 153.072 0 757.327 534.385
415.236 141.735 0 737.751 547.469
348.543 127.029 0 606.758 495.492
388.935 144.168 0 698.213 515.245
388.168 135.457 0 685.831 527.62
367.487 132.19 0 647.288 508.435
3 0 1 3
3 1 4 3
3 1 2 4
3 2 5 4
3 3 4 6
3 4 7 6
3 4 5 7
3 5 8 7
3 6 7 9
3 7 10 9
3 7 8 10
3 8 11 10
3 9 10 12
3 10 13 12
3 10 11 13
3 11 14 13
3 12 13 15
3 13 16 15
3 13 14 16
3 14 17 16
3 15 16 18
3 18 16 19
3 19 16 20
3 16 17 20
3 21 22 24
3 22 25 24
3 22 23 25
3 23 26 25
3 24 25 27
3 25 28 27
3 25 26 28
3 26 29 28
3 27 28 30
3 28 31 30
3 28 29 31
3 29 32 31
3 30 31 33
3 31 34 33
3 31 32 34
3 32 35 34
3 33 34 36
3 34 37 36
3 34 35 37
3 35 38 37
3 36 37 39
3 39 37 40
3 40 37 41
3 37 38 41
3 42 43 45
3 43 46 45
3 43 44 46
3 44 47 46
3 45 46 48
3 46 49 48
3 46 47 49
3 47 50 49
3 48 49 51
3 49 52 51
3 49 50 52
3 50 53 52
3 51 52 54
3 52 55 54
3 52 53 55
3 53 56 55
3 54 55 57
3 55 58 57
3 55 56 58
3 56 59 58
3 57 58 60
3 60 58 61
3 61 58 62
3 58 59 62
3 63 64 66
3 64 67 66
3 64 65 67
3 65 68 67
3 66 67 69
3 67 70 69
3 67 68 70
3 68 71 70
3 69 70 72
3 70 73 72
3 70 71 73
3 71 74 73
3 72 73 75
3 73 76 75
3 73 74 76
3 74 77 76
3 75 76 78
3 76 79 78
3 76 77 79
3 77 80 79
3 78 79 81
3 81 79 82
3 82 79 83
3 79 80 83
3 84 85 87
3 85 88 87
3 85 86 88
3 86 89 88
3 87 88 90
3 88 91 90
3 88 89 91
3 89 92 91
3 90 91 93
3 91 94 93
3 91 92 94
3 92 95 94
3 93 94 96
3 94 97 96
3 97 94 98
3 98 94 99
3 94 95 99
3 99 95 100
3 96 97 101
3 97 102 101
3 97 98 102
3 98 103 102
3 98 99 103
3 99 104 103
3 99 100 104
3 100 105 104
3 101 102 106
3 102 107 106
3 102 103 107
3 103 108 107
3 103 104 108
3 104 109 108
3 104 105 109
3 105 110 109
3 106 107 111
3 107 112 111
3 107 108 112
3 108 113 112
3 108 109 113
3 109 114 113
3 109 110 114
3 110 115 114
3 111 116 0
3 111 112 116
3 112 117 116
3 117 2 116
3 1 116 2
3 1 0 116
3 117 118 21
3 112 118 117
3 112 113 118
3 113 119 118
3 119 23 118
3 22 118 23
3 22 21 118
3 119 120 42
3 113 120 119
3 113 114 120
3 114 121 120
3 121 44 120
3 43 120 44
3 43 42 120
3 121 122 63
3 114 122 121
3 114 115 122
3 115 65 122
3 64 122 65
3 64 63 122
3 123 124 126
3 124 127 126
3 124 125 127
3 125 128 127
3 126 127 129
3 127 130 129
3 127 128 130
3 128 131 130
3 129 130 132
3 130 133 132
3 130 131 133
3 131 134 133
3 132 133 135
3 133 136 135
3 133 134 136
3 134 137 136
3 135 136 138
3 136 139 138
3 136 137 139
3 137 140 139
3 138 139 141
3 141 139 142
3 142 139 143
3 139 140 143
3 146 145 150
3 147 146 150
3 150 154 147
3 150 151 154
3 151 155 154
3 151 152 155
3 152 124 155
3 152 125 124
3 148 147 154
3 148 154 156
3 156 154 155
3 156 155 123
3 123 155 124
3 149 148 156
3 149 156 153
3 153 156 123
3 144 149 153
