ply
format ascii 1.0
element vertex 18
property float x
property float y
property float z
property float u
property float v
element face 16
property list uchar int vertex_indices
end_header
313.423 127.88 0 626.846 255.76
302.967 137.525 0 605.934 275.051
292.511 147.171 0 585.022 294.342
301.637 122.354 0 603.274 244.709
292.483 131.567 0 584.966 263.134
283.329 140.779 0 566.657 281.559
277.861 111.752 0 555.723 223.504
270.864 120.696 0 541.728 241.393
263.867 129.641 0 527.734 259.282
265.752 106.977 0 531.504 213.953
259.662 116.087 0 519.324 232.174
253.572 125.197 0 507.144 250.395
253.084 104.264 0 506.167 208.529
248.796 111.503 0 497.591 223.005
244.507 118.741 0 489.015 237.482
247.543 104.959 0 495.086 209.918
242.782 108.73 0 485.563 217.459
242.13 113.955 0 484.26 227.909
3 0 1 3
3 1 4 3
3 1 2 4
3 2 5 4
3 6 7 9
3 7 10 9
3 7 8 10
3 8 11 10
3 9 10 12
3 10 13 12
3 10 11 13
3 11 14 13
3 12 13 15
3 15 13 16
3 16 13 17
3 13 14 17
