ply
format ascii 1.0
element vertex 22
property float x
property float y
property float z
property float u
property float v
element face 22
property list uchar int vertex_indices
end_header
214.621 165.733 0 429.255 331.453
225.046 147.551 0 450.115 295.093
235.474 129.371 0 470.973 258.733
198.144 164.215 0 396.303 328.41
206.408 150.086 0 412.838 300.159
214.674 135.96 0 429.373 271.907
428.255 148.808 0 856.516 297.623
432.53 106.973 0 865.071 213.954
380.602 160.969 0 761.209 321.942
384.774 117.523 0 769.558 235.051
335.688 172.872 0 671.383 345.748
344.975 117.797 0 689.966 235.599
322.519 172.545 0 645.048 345.094
323.075 120.11 0 646.167 240.226
304.862 172.107 0 609.735 344.217
301.174 122.424 0 602.369 244.853
287.088 171.666 0 574.189 343.334
279.274 124.739 0 558.57 249.479
269.051 171.219 0 538.115 342.438
257.374 127.054 0 514.772 254.106
216.672 169.924 0 433.358 339.836
244.643 149.391 0 489.304 298.778
3 0 3 1
3 1 3 4
3 1 4 2
3 2 4 5
3 6 8 7
3 7 8 9
3 8 10 9
3 9 10 11
3 10 12 11
3 12 13 11
3 12 14 13
3 13 14 15
3 14 16 15
3 15 16 17
3 16 18 17
3 17 18 19
3 20 0 21
3 18 20 21
3 18 21 19
3 19 21 2
3 1 2 21
3 1 21 0
